<svg width="22" height="22" viewBox="0 0 22 22" fill="none" xmlns="http://www.w3.org/2000/svg">
<g id="vuesax/linear/arrow-circle-down">
<g id="arrow-circle-down">
<path id="Vector (Stroke)" fill-rule="evenodd" clip-rule="evenodd" d="M11 1.5C5.75329 1.5 1.5 5.75329 1.5 11C1.5 16.2467 5.75329 20.5 11 20.5C16.2467 20.5 20.5 16.2467 20.5 11C20.5 5.75329 16.2467 1.5 11 1.5ZM0.5 11C0.5 5.20101 5.20101 0.5 11 0.5C16.799 0.5 21.5 5.20101 21.5 11C21.5 16.799 16.799 21.5 11 21.5C5.20101 21.5 0.5 16.799 0.5 11Z" fill="#FBFBFB"/>
<path id="Vector (Stroke)_2" fill-rule="evenodd" clip-rule="evenodd" d="M7.11665 9.38718C7.31163 9.19164 7.62822 9.19119 7.82375 9.38618L11.0007 12.5541L14.1777 9.38618C14.3732 9.19119 14.6898 9.19164 14.8848 9.38718C15.0797 9.58272 15.0793 9.8993 14.8838 10.0943L11.3538 13.6143C11.1586 13.8089 10.8428 13.8089 10.6477 13.6143L7.11765 10.0943C6.92211 9.8993 6.92166 9.58272 7.11665 9.38718Z" fill="#FBFBFB"/>
</g>
</g>
</svg>
