<svg width="24" height="24" viewBox="0 0 24 24" fill="none" xmlns="http://www.w3.org/2000/svg">
<path fill-rule="evenodd" clip-rule="evenodd" d="M3.09467 3.09467C4.42914 1.7602 6.42603 1.25 9 1.25H11C11.4142 1.25 11.75 1.58579 11.75 2C11.75 2.41421 11.4142 2.75 11 2.75H9C6.57397 2.75 5.07086 3.2398 4.15533 4.15533C3.2398 5.07086 2.75 6.57397 2.75 9V15C2.75 17.426 3.2398 18.9291 4.15533 19.8447C5.07086 20.7602 6.57397 21.25 9 21.25H15C17.426 21.25 18.9291 20.7602 19.8447 19.8447C20.7602 18.9291 21.25 17.426 21.25 15V13C21.25 12.5858 21.5858 12.25 22 12.25C22.4142 12.25 22.75 12.5858 22.75 13V15C22.75 17.574 22.2398 19.5709 20.9053 20.9053C19.5709 22.2398 17.574 22.75 15 22.75H9C6.42603 22.75 4.42914 22.2398 3.09467 20.9053C1.7602 19.5709 1.25 17.574 1.25 15V9C1.25 6.42603 1.7602 4.42914 3.09467 3.09467Z" fill="#50A0FF"/>
<path fill-rule="evenodd" clip-rule="evenodd" d="M18.1964 1.01301C19.3098 0.903727 20.4136 1.39266 21.51 2.4891C22.6065 3.58553 23.0954 4.68934 22.9861 5.80269C22.8807 6.8767 22.233 7.76683 21.51 8.48976L13.6213 16.3785C13.3961 16.5964 13.1018 16.7868 12.8178 16.9295C12.5354 17.0715 12.2028 17.1966 11.8858 17.2419L8.87196 17.6724C8.12987 17.7746 7.41984 17.572 6.9217 17.0758C6.42249 16.5786 6.2183 15.8684 6.32744 15.122C6.32751 15.1215 6.32759 15.121 6.32766 15.1205L6.7569 12.1158C6.75696 12.1153 6.75703 12.1149 6.75709 12.1145C6.80213 11.7932 6.92665 11.4583 7.06959 11.1739C7.21283 10.8889 7.40569 10.5928 7.62938 10.3691L15.5094 2.4891C16.2323 1.76617 17.1224 1.11844 18.1964 1.01301ZM18.343 2.50584C17.787 2.56041 17.2071 2.91269 16.57 3.54976L8.69004 11.4298C8.61372 11.5061 8.50658 11.655 8.40982 11.8475C8.31296 12.0402 8.25763 12.2147 8.24251 12.3231L8.24217 12.3255L7.81217 15.3355L7.81176 15.3384C7.76139 15.6814 7.86226 15.8955 7.98021 16.013C8.09937 16.1317 8.31879 16.234 8.66568 16.1867C8.66627 16.1866 8.66686 16.1865 8.66746 16.1864L11.6736 15.757C11.7766 15.7423 11.949 15.6874 12.1441 15.5893C12.3349 15.4934 12.4889 15.3856 12.5745 15.304L20.4494 7.4291C21.0864 6.79203 21.4387 6.21215 21.4933 5.65616C21.544 5.13951 21.3529 4.45332 20.4494 3.54976C19.5458 2.64619 18.8596 2.45512 18.343 2.50584Z" fill="#50A0FF"/>
<path fill-rule="evenodd" clip-rule="evenodd" d="M14.7079 3.42647C15.1067 3.31466 15.5207 3.54734 15.6325 3.94618C16.2316 6.0833 17.9044 7.75776 20.0548 8.36703C20.4533 8.47995 20.6849 8.89455 20.5719 9.29308C20.459 9.69161 20.0444 9.92314 19.6459 9.81022C16.9963 9.0595 14.9291 6.99396 14.1882 4.35108C14.0764 3.95224 14.3091 3.53828 14.7079 3.42647Z" fill="#50A0FF"/>
</svg>
