<svg width="22" height="20" viewBox="0 0 22 20" fill="none" xmlns="http://www.w3.org/2000/svg">
<path fill-rule="evenodd" clip-rule="evenodd" d="M10.9999 7.17041C9.43414 7.17041 8.16992 8.43462 8.16992 10.0004C8.16992 11.5662 9.43414 12.8304 10.9999 12.8304C12.5657 12.8304 13.8299 11.5662 13.8299 10.0004C13.8299 8.43462 12.5657 7.17041 10.9999 7.17041ZM6.66992 10.0004C6.66992 7.6062 8.60571 5.67041 10.9999 5.67041C13.3941 5.67041 15.3299 7.6062 15.3299 10.0004C15.3299 12.3946 13.3941 14.3304 10.9999 14.3304C8.60571 14.3304 6.66992 12.3946 6.66992 10.0004Z" fill="#292D32"/>
<path fill-rule="evenodd" clip-rule="evenodd" d="M1.25734 6.99718C3.64826 3.23882 7.15186 0.970215 10.9998 0.970215C14.848 0.970215 18.3517 3.23901 20.7427 6.99767C21.2876 7.85201 21.5348 8.94637 21.5348 9.99521C21.5348 11.0441 21.2876 12.1384 20.7427 12.9928C18.3517 16.7514 14.848 19.0202 10.9998 19.0202C7.1517 19.0202 3.64795 16.7514 1.25703 12.9928C0.712048 12.1384 0.464844 11.0441 0.464844 9.99521C0.464844 8.94617 0.712142 7.85159 1.25734 6.99718ZM10.9998 2.47021C7.78799 2.47021 4.71174 4.36142 2.52266 7.80276L2.52204 7.80374C2.16745 8.35926 1.96484 9.15446 1.96484 9.99521C1.96484 10.836 2.16745 11.6312 2.52204 12.1867L2.52266 12.1877C4.71174 15.629 7.78799 17.5202 10.9998 17.5202C14.2117 17.5202 17.288 15.629 19.477 12.1877L19.4777 12.1867C19.8322 11.6312 20.0348 10.836 20.0348 9.99521C20.0348 9.15446 19.8322 8.35926 19.4777 7.80374L19.477 7.80276C17.288 4.36142 14.2117 2.47021 10.9998 2.47021Z" fill="#292D32"/>
</svg>
