<svg width="24" height="24" viewBox="0 0 24 24" fill="none" xmlns="http://www.w3.org/2000/svg">
<g id="vuesax/linear/little left arrow">
<path id="Vector" d="M9.02422 12.0008C9.02422 11.8674 9.04922 11.7384 9.09922 11.6138C9.14922 11.4884 9.21589 11.3841 9.29922 11.3008L13.8992 6.70078C14.0826 6.51745 14.3159 6.42578 14.5992 6.42578C14.8826 6.42578 15.1159 6.51745 15.2992 6.70078C15.4826 6.88411 15.5742 7.11745 15.5742 7.40078C15.5742 7.68411 15.4826 7.91745 15.2992 8.10078L11.3992 12.0008L15.2992 15.9008C15.4826 16.0841 15.5742 16.3174 15.5742 16.6008C15.5742 16.8841 15.4826 17.1174 15.2992 17.3008C15.1159 17.4841 14.8826 17.5758 14.5992 17.5758C14.3159 17.5758 14.0826 17.4841 13.8992 17.3008L9.29922 12.7008C9.19922 12.6008 9.12855 12.4924 9.08722 12.3758C9.04522 12.2591 9.02422 12.1341 9.02422 12.0008Z" fill="white"/>
</g>
</svg>
