<svg width="24" height="24" viewBox="0 0 24 24" fill="none" xmlns="http://www.w3.org/2000/svg">
<path fill-rule="evenodd" clip-rule="evenodd" d="M5.27069 8.91016C5.27069 5.18594 8.29648 2.16016 12.0207 2.16016C15.7349 2.16016 18.7707 5.19594 18.7707 8.91016V11.8002C18.7707 12.015 18.8193 12.3295 18.9115 12.6655C19.0025 12.9975 19.1201 13.2925 19.2272 13.4799L20.3738 15.3843C21.2794 16.8935 20.5555 18.8596 18.8872 19.4119C14.4233 20.903 9.6069 20.9029 5.14303 19.4115L5.14025 19.4106C4.29784 19.1254 3.66608 18.5359 3.38361 17.7731C3.10082 17.0094 3.19702 16.1497 3.65806 15.3835L4.80648 13.4761C4.80674 13.4757 4.80699 13.4753 4.80724 13.4748C4.91675 13.2907 5.0367 12.9968 5.12927 12.6633C5.22212 12.3288 5.27069 12.0148 5.27069 11.8002V8.91016ZM12.0207 3.66016C9.12491 3.66016 6.77069 6.01437 6.77069 8.91016V11.8002C6.77069 12.1955 6.68927 12.6515 6.57462 13.0645C6.4599 13.4778 6.2952 13.9082 6.0949 14.2442L6.09323 14.247L4.94333 16.1568C4.9433 16.1569 4.94337 16.1568 4.94333 16.1568C4.69448 16.5705 4.68059 16.956 4.79028 17.2522C4.9002 17.5491 5.16304 17.8343 5.61981 17.9893C9.77515 19.3773 14.2578 19.3771 18.413 17.9888L18.4153 17.9881C19.166 17.7399 19.5016 16.8469 19.0879 16.1566C19.0878 16.1564 19.088 16.1567 19.0879 16.1566L17.9309 14.235C17.7388 13.902 17.578 13.4745 17.4649 13.0623C17.3521 12.6508 17.2707 12.1953 17.2707 11.8002V8.91016C17.2707 6.02437 14.9065 3.66016 12.0207 3.66016Z" fill="white"/>
<path fill-rule="evenodd" clip-rule="evenodd" d="M9.47164 2.9258C9.87109 1.90652 10.8628 1.18945 12.0199 1.18945C13.1771 1.18945 14.1688 1.90652 14.5682 2.9258C14.6725 3.19187 14.6165 3.49408 14.4238 3.70513C14.2311 3.91618 13.9353 3.99939 13.6608 3.91971C13.3834 3.83918 13.1034 3.7784 12.8197 3.744L12.8169 3.74366C11.9525 3.63561 11.1357 3.69974 10.3793 3.91964C10.1048 3.99943 9.80888 3.91628 9.61614 3.70522C9.42339 3.49417 9.36736 3.19191 9.47164 2.9258Z" fill="white"/>
<path fill-rule="evenodd" clip-rule="evenodd" d="M9.77148 19.0586C9.77148 19.6711 10.0263 20.2427 10.4318 20.6483C10.8373 21.0538 11.409 21.3086 12.0215 21.3086C13.2573 21.3086 14.2715 20.2944 14.2715 19.0586H15.7715C15.7715 21.1228 14.0857 22.8086 12.0215 22.8086C10.994 22.8086 10.0456 22.3834 9.37115 21.7089C8.69668 21.0344 8.27148 20.0861 8.27148 19.0586H9.77148Z" fill="white"/>
</svg>
