<svg width="24" height="25" viewBox="0 0 24 25" fill="none" xmlns="http://www.w3.org/2000/svg">
<path d="M9.03023 21.848L11.3602 19.888C11.7102 19.588 12.2902 19.588 12.6402 19.888L14.9702 21.848C15.5102 22.118 16.1702 21.848 16.3702 21.268L16.8102 19.938C16.9202 19.618 16.8102 19.148 16.5702 18.908L14.3002 16.628C14.1302 16.468 14.0002 16.148 14.0002 15.918V13.068C14.0002 12.648 14.3102 12.448 14.7002 12.608L19.6102 14.728C20.3802 15.058 21.0102 14.648 21.0102 13.808V12.518C21.0102 11.848 20.5102 11.078 19.8902 10.818L14.3002 8.40797C14.1402 8.33797 14.0002 8.12797 14.0002 7.94797V4.94797C14.0002 4.00797 13.3102 2.89797 12.4702 2.46797C12.1702 2.31797 11.8202 2.31797 11.5202 2.46797C10.6802 2.89797 9.99023 4.01797 9.99023 4.95797V7.95797C9.99023 8.13797 9.85023 8.34797 9.69023 8.41797L4.11023 10.828C3.49023 11.078 2.99023 11.848 2.99023 12.518V13.808C2.99023 14.648 3.62023 15.058 4.39023 14.728L9.30023 12.608C9.68023 12.438 10.0002 12.648 10.0002 13.068V15.918C10.0002 16.148 9.87023 16.468 9.71023 16.628L7.44023 18.908C7.20023 19.148 7.09023 19.608 7.20023 19.938L7.64023 21.268C7.82023 21.848 8.48023 22.128 9.03023 21.848Z" stroke="white" stroke-width="1.5" stroke-linecap="round" stroke-linejoin="round"/>
</svg>
