<svg width="26" height="26" viewBox="0 0 26 26" fill="none" xmlns="http://www.w3.org/2000/svg">
<path d="M3.25 6.5H5.41667H22.75" stroke="#52A1FF" stroke-width="2" stroke-linecap="round" stroke-linejoin="round"/>
<path d="M20.5827 6.49935V21.666C20.5827 22.2406 20.3544 22.7917 19.9481 23.1981C19.5418 23.6044 18.9907 23.8327 18.416 23.8327H7.58268C7.00805 23.8327 6.45695 23.6044 6.05062 23.1981C5.64429 22.7917 5.41602 22.2406 5.41602 21.666V6.49935M8.66602 6.49935V4.33268C8.66602 3.75805 8.89429 3.20695 9.30062 2.80062C9.70695 2.39429 10.258 2.16602 10.8327 2.16602H15.166C15.7407 2.16602 16.2918 2.39429 16.6981 2.80062C17.1044 3.20695 17.3327 3.75805 17.3327 4.33268V6.49935" stroke="#52A1FF" stroke-width="2" stroke-linecap="round" stroke-linejoin="round"/>
<path d="M10.834 11.916V18.416" stroke="#52A1FF" stroke-width="2" stroke-linecap="round" stroke-linejoin="round"/>
<path d="M15.166 11.916V18.416" stroke="#52A1FF" stroke-width="2" stroke-linecap="round" stroke-linejoin="round"/>
</svg>
