<svg width="20" height="22" viewBox="0 0 20 22" fill="none" xmlns="http://www.w3.org/2000/svg">
<g id="vuesax/linear/trash">
<g id="trash">
<path id="Vector (Stroke)" fill-rule="evenodd" clip-rule="evenodd" d="M2.99052 4.28293C4.98689 4.0813 6.98341 3.98047 8.98004 3.98047C12.337 3.98047 15.7034 4.15133 19.0493 4.48291C19.3241 4.51014 19.5248 4.75498 19.4976 5.02978C19.4704 5.30457 19.2255 5.50526 18.9507 5.47803C15.6367 5.14961 12.3031 4.98047 8.98004 4.98047C7.0169 4.98047 5.05367 5.07962 3.09029 5.27794L3.08882 5.27809L3.08882 5.27808L1.04882 5.47808C0.773997 5.50503 0.529366 5.30408 0.502422 5.02925C0.475478 4.75443 0.676426 4.5098 0.951251 4.48285L2.99052 4.28293Z" fill="white" stroke="black" stroke-width="0.2" stroke-linecap="round" stroke-linejoin="round"/>
<g id="Vector (Stroke)_2">
<path fill-rule="evenodd" clip-rule="evenodd" d="M7.21314 2.74304L6.99317 4.05281C6.94744 4.32514 6.6896 4.50883 6.41727 4.46309C6.14494 4.41736 5.96125 4.15952 6.00698 3.88719L6.22698 2.57719C6.2302 2.55809 6.23347 2.53849 6.23675 2.51887C6.30805 2.0918 6.39875 1.54852 6.75632 1.14304C7.15944 0.685911 7.79248 0.5 8.69008 0.5H11.3101C12.2152 0.5 12.8486 0.699433 13.2502 1.1623C13.6094 1.57616 13.698 2.1233 13.7659 2.54252C13.7684 2.55789 13.7709 2.57308 13.7733 2.58808L13.9931 3.88657C14.0391 4.15884 13.8558 4.41691 13.5835 4.46299C13.3112 4.50907 13.0532 4.3257 13.0071 4.05343L12.7866 2.75046C12.7058 2.25511 12.6472 1.99318 12.4949 1.8177C12.3716 1.67557 12.095 1.5 11.3101 1.5H8.69008C7.89768 1.5 7.62571 1.66909 7.50634 1.80446C7.35785 1.97283 7.29986 2.22815 7.21314 2.74304Z" fill="white"/>
<path d="M7.21314 2.74304C7.21314 2.743 7.21313 2.74308 7.21314 2.74304ZM7.21314 2.74304L6.99317 4.05281C6.94744 4.32514 6.6896 4.50883 6.41727 4.46309C6.14494 4.41736 5.96125 4.15952 6.00698 3.88719L6.22698 2.57719C6.2302 2.55809 6.23347 2.53849 6.23675 2.51887C6.30805 2.0918 6.39875 1.54852 6.75632 1.14304C7.15944 0.685911 7.79248 0.5 8.69008 0.5H11.3101C12.2152 0.5 12.8486 0.699433 13.2502 1.1623C13.6094 1.57616 13.698 2.1233 13.7659 2.54252C13.7684 2.55789 13.7709 2.57308 13.7733 2.58808L13.9931 3.88657C14.0391 4.15884 13.8558 4.41691 13.5835 4.46299C13.3112 4.50907 13.0532 4.3257 13.0071 4.05343L12.7866 2.75046C12.7058 2.25511 12.6472 1.99318 12.4949 1.8177C12.3716 1.67557 12.095 1.5 11.3101 1.5H8.69008C7.89768 1.5 7.62571 1.66909 7.50634 1.80446C7.35785 1.97283 7.29986 2.22815 7.21314 2.74304Z" stroke="black" stroke-width="0.2" stroke-linecap="round" stroke-linejoin="round"/>
</g>
<path id="Vector (Stroke)_3" fill-rule="evenodd" clip-rule="evenodd" d="M3.1182 7.64168C3.39377 7.62389 3.63158 7.83287 3.64937 8.10844L4.29919 18.1757C4.29922 18.1761 4.29925 18.1766 4.29928 18.1771C4.32727 18.5764 4.35194 18.9129 4.41182 19.2102C4.47072 19.5027 4.55751 19.7213 4.68694 19.8898C4.92783 20.2034 5.44578 20.5006 6.79041 20.5006H13.2104C14.555 20.5006 15.073 20.2034 15.3139 19.8898C15.4433 19.7213 15.5301 19.5027 15.589 19.2102C15.6489 18.9129 15.6736 18.5764 15.7015 18.177C15.7016 18.1766 15.7016 18.1761 15.7016 18.1757L16.3514 8.10844C16.3692 7.83287 16.607 7.62389 16.8826 7.64168C17.1582 7.65947 17.3672 7.89728 17.3494 8.17285L16.6992 18.2456L16.6984 18.257C16.6717 18.6386 16.6436 19.0387 16.5693 19.4076C16.4932 19.7855 16.3625 20.1662 16.1069 20.499C15.5778 21.1878 14.6558 21.5006 13.2104 21.5006H6.79041C5.34503 21.5006 4.42299 21.1878 3.89388 20.499C3.63831 20.1662 3.5076 19.7855 3.4315 19.4076C3.35719 19.0386 3.32916 18.6386 3.30243 18.257L3.30163 18.2456L3.30145 18.2428L2.65145 8.17285C2.63366 7.89728 2.84263 7.65947 3.1182 7.64168Z" fill="white" stroke="black" stroke-width="0.2" stroke-linecap="round" stroke-linejoin="round"/>
<path id="Vector (Stroke)_4" fill-rule="evenodd" clip-rule="evenodd" d="M7.83008 15.5C7.83008 15.2239 8.05394 15 8.33008 15H11.6601C11.9362 15 12.1601 15.2239 12.1601 15.5C12.1601 15.7761 11.9362 16 11.6601 16H8.33008C8.05394 16 7.83008 15.7761 7.83008 15.5Z" fill="white" stroke="black" stroke-width="0.2" stroke-linecap="round" stroke-linejoin="round"/>
<path id="Vector (Stroke)_5" fill-rule="evenodd" clip-rule="evenodd" d="M7 11.5C7 11.2239 7.22386 11 7.5 11H12.5C12.7761 11 13 11.2239 13 11.5C13 11.7761 12.7761 12 12.5 12H7.5C7.22386 12 7 11.7761 7 11.5Z" fill="white" stroke="black" stroke-width="0.2" stroke-linecap="round" stroke-linejoin="round"/>
</g>
</g>
</svg>
