<svg width="420" height="307" viewBox="0 0 420 307" fill="none" xmlns="http://www.w3.org/2000/svg">
<path d="M419.389 129.176V113.348C419.389 110.33 418.19 107.436 416.055 105.302C413.921 103.167 411.027 101.969 408.009 101.969H367.842C364.824 101.969 361.929 100.77 359.795 98.6355C357.661 96.5014 356.462 93.6069 356.462 90.5888V74.7615C356.462 71.7434 357.661 68.8489 359.795 66.7148C361.929 64.5807 364.824 63.3817 367.842 63.3817H369.11C370.605 63.3817 372.084 63.0874 373.465 62.5155C374.846 61.9436 376.1 61.1054 377.157 60.0487C378.214 58.992 379.052 57.7375 379.624 56.3568C380.196 54.9761 380.49 53.4964 380.49 52.0019V36.1747C380.49 34.6803 380.196 33.2005 379.624 31.8198C379.052 30.4392 378.214 29.1847 377.157 28.128C376.1 27.0713 374.846 26.233 373.465 25.6612C372.084 25.0893 370.605 24.7949 369.11 24.7949H77.2764C74.2583 24.7949 71.3638 25.9939 69.2296 28.128C67.0955 30.2621 65.8966 33.1566 65.8966 36.1747V52.0019C65.8966 53.4964 66.1909 54.9761 66.7628 56.3568C67.3347 57.7375 68.1729 58.992 69.2296 60.0487C70.2863 61.1054 71.5408 61.9436 72.9215 62.5155C74.3022 63.0874 75.782 63.3817 77.2764 63.3817C78.7708 63.3817 80.2506 63.6761 81.6312 64.248C83.0119 64.8199 84.2664 65.6581 85.3231 66.7148C86.3798 67.7715 87.218 69.026 87.7899 70.4067C88.3618 71.7873 88.6561 73.2671 88.6561 74.7615V90.5888C88.6561 92.0832 88.3618 93.563 87.7899 94.9436C87.218 96.3243 86.3798 97.5788 85.3231 98.6355C84.2664 99.6922 83.0119 100.53 81.6312 101.102C80.2506 101.674 78.7708 101.969 77.2764 101.969H33.2697C30.2516 101.969 27.3571 103.167 25.223 105.302C23.0889 107.436 21.8899 110.33 21.8899 113.348V129.176C21.8899 132.194 23.0889 135.088 25.223 137.222C27.3571 139.356 30.2516 140.555 33.2697 140.555H50.5372C52.0317 140.555 53.5114 140.85 54.8921 141.422C56.2728 141.993 57.5273 142.832 58.584 143.888C59.6407 144.945 60.4789 146.2 61.0508 147.58C61.6227 148.961 61.917 150.441 61.917 151.935V167.762C61.917 169.257 61.6227 170.737 61.0508 172.117C60.4789 173.498 59.6407 174.752 58.584 175.809C57.5273 176.866 56.2728 177.704 54.8921 178.276C53.5114 178.848 52.0317 179.142 50.5372 179.142H50.4955C49.0011 179.142 47.5213 179.437 46.1407 180.008C44.76 180.58 43.5055 181.419 42.4488 182.475C41.3921 183.532 40.5538 184.787 39.982 186.167C39.4101 187.548 39.1157 189.028 39.1157 190.522V206.349C39.1157 209.367 40.3147 212.262 42.4488 214.396C44.5829 216.53 47.4774 217.729 50.4955 217.729H52.9938C56.0119 217.729 58.9064 218.928 61.0405 221.062C63.1746 223.196 64.3736 226.091 64.3736 229.109V244.936C64.3736 246.43 64.0792 247.91 63.5073 249.291C62.9355 250.672 62.0972 251.926 61.0405 252.983C59.9838 254.04 58.7293 254.878 57.3486 255.45C55.968 256.022 54.4882 256.316 52.9938 256.316H11.9931C8.97496 256.316 6.08047 257.515 3.94634 259.649C1.81222 261.783 0.613281 264.678 0.613281 267.696V283.523C0.613281 285.017 0.907627 286.497 1.47952 287.878C2.0514 289.258 2.88963 290.513 3.94634 291.57C5.00305 292.626 6.25755 293.465 7.63821 294.036C9.01887 294.608 10.4987 294.903 11.9931 294.903H375.22C376.714 294.903 378.194 294.608 379.575 294.036C380.955 293.465 382.21 292.626 383.266 291.57C384.323 290.513 385.161 289.258 385.733 287.878C386.305 286.497 386.599 285.017 386.599 283.523V267.696C386.599 264.678 385.401 261.783 383.266 259.649C381.132 257.515 378.238 256.316 375.22 256.316H365.353C363.858 256.316 362.379 256.022 360.998 255.45C359.617 254.878 358.363 254.04 357.306 252.983C356.249 251.926 355.411 250.672 354.839 249.291C354.267 247.91 353.973 246.43 353.973 244.936V229.109C353.973 227.614 354.267 226.135 354.839 224.754C355.411 223.373 356.249 222.119 357.306 221.062C358.363 220.005 359.617 219.167 360.998 218.595C362.379 218.023 363.858 217.729 365.353 217.729H388.618C390.112 217.729 391.592 217.435 392.973 216.863C394.353 216.291 395.608 215.453 396.665 214.396C397.721 213.339 398.56 212.085 399.131 210.704C399.703 209.323 399.998 207.844 399.998 206.349V190.522C399.998 189.028 399.703 187.548 399.131 186.167C398.56 184.787 397.721 183.532 396.665 182.475C395.608 181.419 394.353 180.58 392.973 180.008C391.592 179.437 390.112 179.142 388.618 179.142H381.56C378.542 179.142 375.648 177.943 373.514 175.809C371.38 173.675 370.181 170.781 370.181 167.762V151.935C370.181 148.917 371.38 146.023 373.514 143.888C375.648 141.754 378.542 140.555 381.56 140.555H408.009C411.027 140.555 413.921 139.356 416.055 137.222C418.19 135.088 419.389 132.194 419.389 129.176Z" fill="#DBE8EC" fill-opacity="0.1"/>
<path d="M278.152 20.5117H308.473" stroke="#B9D4DB" stroke-width="3" stroke-miterlimit="10" stroke-linecap="round"/>
<path d="M278.152 29.25H308.473" stroke="#B9D4DB" stroke-width="3" stroke-miterlimit="10" stroke-linecap="round"/>
<path d="M278.152 37.9883H308.473" stroke="#B9D4DB" stroke-width="3" stroke-miterlimit="10" stroke-linecap="round"/>
<path d="M299.156 263.744H329.477" stroke="#B9D4DB" stroke-width="3" stroke-miterlimit="10" stroke-linecap="round"/>
<path d="M299.156 272.484H329.477" stroke="#B9D4DB" stroke-width="3" stroke-miterlimit="10" stroke-linecap="round"/>
<path d="M299.156 281.223H329.477" stroke="#B9D4DB" stroke-width="3" stroke-miterlimit="10" stroke-linecap="round"/>
<path d="M47.5273 119.199H77.8483" stroke="#B9D4DB" stroke-width="3" stroke-miterlimit="10" stroke-linecap="round"/>
<path d="M47.5273 127.938H77.8483" stroke="#B9D4DB" stroke-width="3" stroke-miterlimit="10" stroke-linecap="round"/>
<path d="M47.5273 136.678H77.8483" stroke="#B9D4DB" stroke-width="3" stroke-miterlimit="10" stroke-linecap="round"/>
<path d="M380.296 234.86L262.816 246.679L145.336 234.86C144.843 234.811 144.385 234.58 144.053 234.212C143.72 233.844 143.536 233.366 143.536 232.87L140.768 224.773L143.536 92.1191L262.816 104.119L382.096 92.1191L384.728 225.854L382.096 232.87C382.096 233.366 381.912 233.844 381.579 234.212C381.247 234.58 380.79 234.811 380.296 234.86Z" fill="#E06714"/>
<path d="M384.728 225.853L262.816 237.618L140.768 224.773L143.536 85.2696C143.536 84.9901 143.595 84.7136 143.708 84.4581C143.821 84.2026 143.987 83.9738 144.194 83.7862C144.402 83.5987 144.646 83.4568 144.912 83.3695C145.177 83.2822 145.458 83.2516 145.736 83.2796L262.816 95.0583L379.896 83.2796C380.174 83.2516 380.455 83.2823 380.72 83.3695C380.986 83.4568 381.23 83.5988 381.438 83.7863C381.645 83.9738 381.811 84.2027 381.924 84.4582C382.037 84.7137 382.096 84.9901 382.096 85.2696L384.728 225.853Z" fill="#EE781D"/>
<path d="M261.855 228.258L379.087 216.853L374.198 83.8516L270.606 94.2736L261.855 228.258Z" fill="#E06714"/>
<path d="M261.855 79.4575L364.335 67.9375L369.082 217.825L261.855 228.257V79.4575Z" fill="#E06714"/>
<path d="M267.615 78.4981L159.855 76.5781L165.615 222.498L261.855 228.258L267.615 78.4981Z" fill="#E06714"/>
<path d="M262.814 71.5376L365.294 60.0176L372.494 210.258L262.814 220.338V71.5376Z" fill="#F9AE2B"/>
<path d="M262.814 215.365V220.339L372.494 210.259L372.257 205.307L262.814 215.365Z" fill="#E59413"/>
<path d="M262.815 71.5372L155.055 69.6172L160.815 215.537L262.815 220.337V71.5372Z" fill="#F9AE2B"/>
<path d="M160.814 215.537L262.814 220.337V215.213L160.814 210.412V215.537Z" fill="#E59413"/>
<path d="M167.6 166.854C167.908 178.583 172.024 189.894 179.327 199.078C186.63 208.262 196.723 214.82 208.081 217.763L252.975 219.875V77.7782C252.975 77.7782 219.054 80.1867 183.882 70.1317L165.062 69.7965L167.6 166.854ZM320.057 215.078C331.138 207.171 340.054 196.606 345.985 184.354C351.916 172.102 354.673 158.555 354.001 144.959L349.889 61.75L325.035 64.5438C302.315 76.0466 274.532 83.256 274.532 83.256V219.261L320.057 215.078Z" fill="#E59413"/>
<path d="M262.814 71.5371C262.814 71.5371 320.174 56.6571 337.454 35.5371L342.283 133.24C343.219 152.18 337.498 170.85 326.112 186.014C314.727 201.178 298.394 211.881 279.945 216.266L262.814 220.337V71.5371Z" fill="#F9AE2B"/>
<path d="M278.063 71.5382L262.814 220.338C262.814 220.338 282.231 218.871 283.754 218.414C300.804 202.773 310.512 176.494 308.198 153.149L298.905 59.3691C292.734 61.9013 286.686 64.0929 281.354 65.8915C279.399 69.2915 278.063 71.5382 278.063 71.5382Z" fill="#E59413"/>
<path d="M262.816 71.5371C262.816 71.5371 279.376 43.6971 281.296 35.5371L292.951 153.147C294.225 166.002 292.114 178.967 286.828 190.754C281.541 202.54 273.264 212.739 262.816 220.337L262.816 71.5371ZM262.816 71.5371C262.816 71.5371 215.536 74.8971 174.736 57.1371L177.442 160.612C177.763 172.92 182.276 184.749 190.234 194.143C198.191 203.537 209.116 209.934 221.203 212.275L262.816 220.337L262.816 71.5371Z" fill="#F9AE2B"/>
<path d="M262.815 71.5371C263.643 83.9371 264.076 96.3371 264.37 108.737C264.554 114.937 264.595 121.137 264.704 127.337L264.814 145.937L264.709 164.537C264.598 170.737 264.562 176.937 264.376 183.137C264.083 195.537 263.648 207.937 262.815 220.337C261.983 207.937 261.548 195.537 261.255 183.137C261.069 176.937 261.033 170.737 260.922 164.537L260.816 145.937L260.927 127.337C261.035 121.137 261.076 114.937 261.261 108.737C261.555 96.3371 261.988 83.9371 262.815 71.5371ZM192.967 92.4921C198.01 92.9187 202.956 93.5258 207.9 94.1066L222.673 95.8758C227.591 96.4546 232.505 96.9379 237.438 97.4204C242.376 97.8905 247.312 98.1814 252.367 98.6121C247.443 99.8019 242.404 100.456 237.339 100.564C232.287 100.674 227.234 100.435 222.215 99.8482C217.207 99.2607 212.24 98.3732 207.339 97.1904C202.423 96.0362 197.615 94.4644 192.967 92.4921ZM192.967 113.848C198.01 114.274 202.956 114.881 207.9 115.462L222.673 117.231C227.591 117.81 232.505 118.293 237.438 118.776C242.376 119.246 247.312 119.537 252.367 119.968C247.443 121.157 242.404 121.812 237.339 121.919C232.287 122.03 227.234 121.791 222.215 121.204C217.207 120.616 212.24 119.729 207.339 118.546C202.423 117.392 197.615 115.82 192.967 113.848ZM192.967 135.203C198.01 135.63 202.956 136.237 207.9 136.818L222.673 138.587C227.591 139.166 232.505 139.649 237.438 140.131C242.376 140.601 247.312 140.892 252.367 141.323C247.443 142.513 242.404 143.167 237.339 143.275C232.287 143.385 227.234 143.146 222.215 142.559C217.207 141.972 212.24 141.084 207.339 139.901C202.423 138.747 197.615 137.175 192.967 135.203ZM192.967 156.559C198.01 156.985 202.956 157.592 207.9 158.173L222.673 159.942C227.591 160.521 232.505 161.004 237.438 161.487C242.376 161.957 247.312 162.248 252.367 162.679C247.443 163.868 242.404 164.523 237.339 164.63C232.287 164.741 227.234 164.501 222.215 163.915C217.207 163.327 212.24 162.44 207.339 161.257C202.423 160.103 197.615 158.531 192.967 156.559ZM192.967 177.914C198.01 178.341 202.956 178.948 207.9 179.529L222.673 181.298C227.591 181.876 232.505 182.36 237.438 182.842C242.376 183.312 247.312 183.603 252.367 184.034C247.443 185.224 242.404 185.878 237.339 185.986C232.287 186.096 227.234 185.857 222.215 185.27C217.207 184.683 212.24 183.795 207.339 182.612C202.423 181.458 197.615 179.886 192.967 177.914Z" fill="#E59413"/>
<path d="M334.178 95.3508L310.881 99.2797C310.623 99.3297 310.358 99.3285 310.101 99.2761C309.843 99.2236 309.599 99.121 309.381 98.9741C309.163 98.8272 308.977 98.6388 308.832 98.4197C308.687 98.2007 308.587 97.9552 308.537 97.6974L307.764 80.8691C307.714 80.6113 307.715 80.3461 307.768 80.0888C307.82 79.8314 307.923 79.5869 308.07 79.3692C308.217 79.1515 308.405 78.9649 308.624 78.82C308.843 78.6751 309.088 78.5747 309.346 78.5247L332.942 73.6753C333.2 73.6253 333.465 73.6265 333.722 73.6789C333.98 73.7314 334.224 73.834 334.442 73.9809C334.66 74.1278 334.846 74.3162 334.991 74.5353C335.136 74.7543 335.236 74.9998 335.286 75.2576L335.76 93.0064C335.861 93.5271 335.751 94.0666 335.454 94.5063C335.158 94.9459 334.699 95.2497 334.178 95.3508ZM320.952 136.811L297.656 140.74C297.398 140.79 297.133 140.789 296.875 140.737C296.618 140.684 296.373 140.582 296.156 140.435C295.938 140.288 295.751 140.099 295.607 139.88C295.462 139.661 295.361 139.416 295.311 139.158L294.539 122.33C294.438 121.809 294.547 121.27 294.844 120.83C295.141 120.39 295.6 120.086 296.121 119.985L319.717 115.136C319.974 115.086 320.24 115.087 320.497 115.14C320.754 115.192 320.999 115.295 321.216 115.442C321.434 115.588 321.621 115.777 321.766 115.996C321.911 116.215 322.011 116.46 322.061 116.718L322.535 134.467C322.585 134.725 322.583 134.99 322.531 135.247C322.479 135.505 322.376 135.749 322.229 135.967C322.082 136.185 321.894 136.371 321.675 136.516C321.456 136.661 321.21 136.761 320.952 136.811Z" fill="#EE781D"/>
<path d="M296.121 119.985C295.6 120.087 295.141 120.39 294.844 120.83C294.547 121.27 294.438 121.809 294.539 122.33L295.311 139.158C295.412 139.679 295.716 140.138 296.156 140.435C296.595 140.732 297.135 140.842 297.656 140.74L306.816 139.196L304.736 118.215L296.121 119.985Z" fill="#CE800D"/>
<path d="M330.072 178.273L306.775 182.202C306.254 182.303 305.715 182.193 305.275 181.896C304.835 181.599 304.531 181.14 304.43 180.619L303.658 163.791C303.608 163.533 303.609 163.268 303.661 163.011C303.714 162.753 303.816 162.509 303.963 162.291C304.11 162.073 304.299 161.887 304.518 161.742C304.737 161.597 304.982 161.497 305.24 161.447L328.836 156.597C329.094 156.547 329.359 156.548 329.616 156.601C329.873 156.653 330.118 156.756 330.336 156.903C330.553 157.05 330.74 157.238 330.885 157.457C331.03 157.676 331.13 157.922 331.18 158.179L331.654 175.928C331.704 176.186 331.703 176.451 331.65 176.709C331.598 176.966 331.495 177.21 331.348 177.428C331.201 177.646 331.013 177.832 330.794 177.977C330.575 178.122 330.329 178.223 330.072 178.273Z" fill="#EE781D"/>
<path d="M305.24 161.445C304.719 161.546 304.26 161.85 303.963 162.289C303.667 162.729 303.557 163.269 303.658 163.789L304.43 180.618C304.487 180.903 304.605 181.173 304.777 181.408C304.949 181.642 305.17 181.837 305.426 181.976C307.392 175.075 308.434 167.944 308.526 160.77L305.24 161.445Z" fill="#CE800D"/>
<path d="M197.04 301.443C204.198 301.443 210 295.641 210 288.483C210 281.326 204.198 275.523 197.04 275.523C189.882 275.523 184.08 281.326 184.08 288.483C184.08 295.641 189.882 301.443 197.04 301.443Z" fill="#B9D4DB"/>
<path d="M179.759 264.243C183.47 264.243 186.479 261.234 186.479 257.523C186.479 253.811 183.47 250.803 179.759 250.803C176.048 250.803 173.039 253.811 173.039 257.523C173.039 261.234 176.048 264.243 179.759 264.243Z" fill="#B9D4DB"/>
<path d="M223.717 273.843C229.019 273.843 233.317 269.545 233.317 264.243C233.317 258.941 229.019 254.643 223.717 254.643C218.415 254.643 214.117 258.941 214.117 264.243C214.117 269.545 218.415 273.843 223.717 273.843Z" fill="#B9D4DB"/>
<path d="M59.129 229.295C67.6452 229.295 74.549 222.391 74.549 213.875C74.549 205.359 67.6452 198.455 59.129 198.455C50.6128 198.455 43.709 205.359 43.709 213.875C43.709 222.391 50.6128 229.295 59.129 229.295Z" fill="#B9D4DB"/>
<path d="M29.6629 210.925C34.0988 210.925 37.6949 207.329 37.6949 202.893C37.6949 198.457 34.0988 194.861 29.6629 194.861C25.2269 194.861 21.6309 198.457 21.6309 202.893C21.6309 207.329 25.2269 210.925 29.6629 210.925Z" fill="#B9D4DB"/>
<path d="M37.0412 180.223C39.5999 180.223 41.6742 178.149 41.6742 175.59C41.6742 173.031 39.5999 170.957 37.0412 170.957C34.4825 170.957 32.4082 173.031 32.4082 175.59C32.4082 178.149 34.4825 180.223 37.0412 180.223Z" fill="#B9D4DB"/>
<path d="M62.6871 189.976C68.8213 189.976 73.7941 185.003 73.7941 178.869C73.7941 172.735 68.8213 167.762 62.6871 167.762C56.5529 167.762 51.5801 172.735 51.5801 178.869C51.5801 185.003 56.5529 189.976 62.6871 189.976Z" fill="#B9D4DB"/>
<path d="M156.186 55.6388C164.702 55.6388 171.606 48.7351 171.606 40.2188C171.606 31.7026 164.702 24.7988 156.186 24.7988C147.669 24.7988 140.766 31.7026 140.766 40.2188C140.766 48.7351 147.669 55.6388 156.186 55.6388Z" fill="#B9D4DB"/>
<path d="M156.811 16.812C161.247 16.812 164.843 13.216 164.843 8.78004C164.843 4.34409 161.247 0.748047 156.811 0.748047C152.375 0.748047 148.779 4.34409 148.779 8.78004C148.779 13.216 152.375 16.812 156.811 16.812Z" fill="#B9D4DB"/>
<path d="M210.309 20.4255C214.149 20.4255 217.261 17.313 217.261 13.4735C217.261 9.634 214.149 6.52148 210.309 6.52148C206.47 6.52148 203.357 9.634 203.357 13.4735C203.357 17.313 206.47 20.4255 210.309 20.4255Z" fill="#B9D4DB"/>
<path d="M185.018 11.3519C187.576 11.3519 189.651 9.27768 189.651 6.71894C189.651 4.16021 187.576 2.08594 185.018 2.08594C182.459 2.08594 180.385 4.16021 180.385 6.71894C180.385 9.27768 182.459 11.3519 185.018 11.3519Z" fill="#B9D4DB"/>
<path d="M190.402 43.1144C196.536 43.1144 201.509 38.1416 201.509 32.0074C201.509 25.8732 196.536 20.9004 190.402 20.9004C184.268 20.9004 179.295 25.8732 179.295 32.0074C179.295 38.1416 184.268 43.1144 190.402 43.1144Z" fill="#B9D4DB"/>
<path d="M138.729 208.161L122.938 199.154L113.93 214.946L129.722 223.953L138.729 208.161Z" fill="#DBE8EC"/>
<path d="M199.011 204.093C208.93 196.613 216.409 186.359 220.501 174.629C224.594 162.899 225.116 150.218 222.002 138.191C218.887 126.164 212.277 115.33 203.006 107.06C193.734 98.7896 182.219 93.4542 169.916 91.7283C157.612 90.0024 145.074 91.9635 133.885 97.3636C122.696 102.764 113.36 111.36 107.056 122.066C100.753 132.773 97.7661 145.107 98.4729 157.511C99.1797 169.915 103.549 181.83 111.027 191.751C115.993 198.339 122.208 203.885 129.318 208.071C136.427 212.257 144.292 215.001 152.462 216.148C160.633 217.294 168.949 216.819 176.936 214.751C184.923 212.682 192.424 209.061 199.011 204.093ZM120.806 184.387C114.782 176.4 111.262 166.806 110.691 156.818C110.12 146.83 112.523 136.897 117.598 128.275C122.672 119.653 130.189 112.729 139.198 108.38C148.208 104.03 158.305 102.45 168.212 103.84C178.119 105.229 187.392 109.525 194.858 116.184C202.324 122.843 207.647 131.567 210.155 141.252C212.662 150.937 212.242 161.148 208.946 170.594C205.65 180.04 199.627 188.296 191.638 194.319C180.927 202.392 167.449 205.881 154.166 204.018C140.883 202.156 128.884 195.095 120.806 184.387Z" fill="#3086A3"/>
<path opacity="0.76" d="M161.189 204.515C189.124 204.515 211.769 181.87 211.769 153.935C211.769 126.001 189.124 103.355 161.189 103.355C133.255 103.355 110.609 126.001 110.609 153.935C110.609 181.87 133.255 204.515 161.189 204.515Z" fill="white"/>
<path d="M197.302 156.156C196.82 163.992 193.803 171.458 188.706 177.428C183.609 183.398 176.708 187.549 169.045 189.253C161.382 190.958 153.373 190.123 146.226 186.877C139.079 183.63 133.181 178.146 129.424 171.254" stroke="#DBE8EC" stroke-width="10" stroke-miterlimit="10"/>
<path d="M134.495 226.625L109.2 212.198C108.241 211.651 107.019 211.985 106.472 212.944L69.4748 277.81C68.9275 278.77 69.2617 279.991 70.2211 280.538L95.5159 294.966C96.4754 295.513 97.6969 295.179 98.2441 294.219L135.241 229.353C135.789 228.394 135.454 227.172 134.495 226.625Z" fill="#3086A3"/>
<path d="M98.244 294.219L135.241 229.353C135.371 229.125 135.455 228.874 135.488 228.613C135.521 228.352 135.502 228.088 135.433 227.835C135.364 227.581 135.245 227.344 135.084 227.137C134.923 226.929 134.723 226.755 134.495 226.625L128.204 223.037C128.665 223.3 129.002 223.735 129.142 224.247C129.282 224.758 129.213 225.304 128.95 225.765L91.9527 290.631C91.8226 290.859 91.6488 291.059 91.4413 291.22C91.2338 291.381 90.9966 291.5 90.7433 291.569C90.4899 291.638 90.2254 291.657 89.9649 291.624C89.7043 291.591 89.4527 291.507 89.2246 291.377L95.5159 294.966C95.744 295.096 95.9956 295.18 96.2561 295.213C96.5167 295.245 96.7812 295.227 97.0345 295.157C97.2878 295.088 97.525 294.97 97.7326 294.809C97.9401 294.648 98.1139 294.447 98.244 294.219Z" fill="#25788E"/>
<path d="M75.5571 281.28L112.554 216.414C112.684 216.186 112.858 215.986 113.066 215.825C113.273 215.664 113.51 215.546 113.764 215.476C114.017 215.407 114.282 215.388 114.542 215.421C114.803 215.454 115.054 215.538 115.282 215.668L122.27 219.654L109.199 212.198C108.738 211.935 108.192 211.866 107.68 212.006C107.169 212.146 106.734 212.484 106.471 212.945L69.4736 277.811C69.2109 278.271 69.1419 278.818 69.2818 279.329C69.4218 279.841 69.7592 280.276 70.22 280.539L76.3035 284.009C76.0753 283.878 75.875 283.705 75.714 283.497C75.5531 283.29 75.4345 283.052 75.3652 282.799C75.2959 282.546 75.2772 282.281 75.3101 282.021C75.3431 281.76 75.427 281.509 75.5571 281.28Z" fill="#409CB5"/>
<path d="M83.293 287.992L95.516 294.964H95.517L83.293 287.992Z" fill="#409CB5"/>
<path d="M70.0927 274.319L100.933 291.909C101.393 292.172 101.731 292.607 101.871 293.119C102.011 293.63 101.942 294.177 101.679 294.637L98.7353 299.799C97.0041 302.834 94.1381 305.057 90.7678 305.979C87.3974 306.901 83.7988 306.447 80.7637 304.715L69.3376 298.198C67.8347 297.341 66.5153 296.196 65.4549 294.829C64.3945 293.462 63.6137 291.9 63.1571 290.231C62.7005 288.562 62.5771 286.82 62.7939 285.103C63.0108 283.387 63.5635 281.73 64.4207 280.227L67.3646 275.065C67.6274 274.605 68.0624 274.267 68.5741 274.127C69.0857 273.987 69.632 274.056 70.0927 274.319Z" fill="#DBE8EC"/>
<path d="M70.4027 283.683L73.3465 278.522C73.6093 278.061 74.0444 277.724 74.556 277.584C75.0676 277.444 75.6139 277.513 76.0747 277.775L101.251 292.135C101.153 292.05 101.047 291.974 100.934 291.909L70.0941 274.319C69.6333 274.057 69.0871 273.988 68.5754 274.128C68.0638 274.268 67.6287 274.605 67.3659 275.066L64.422 280.227C62.6909 283.262 62.2364 286.861 63.1585 290.231C64.0806 293.602 66.3037 296.468 69.3389 298.199L74.6679 301.238C71.8518 299.408 69.8416 296.571 69.0487 293.308C68.2558 290.044 68.7402 286.601 70.4027 283.683Z" fill="#E8EEEF"/>
<path d="M98.7364 299.798L101.68 294.637C101.943 294.176 102.012 293.629 101.872 293.118C101.732 292.606 101.395 292.171 100.934 291.908L94.6157 288.305C95.0747 288.568 95.4105 289.003 95.5494 289.514C95.6884 290.024 95.6192 290.569 95.357 291.029L92.4132 296.191C90.682 299.226 87.816 301.449 84.4457 302.371C81.0754 303.293 77.4768 302.839 74.4415 301.107L69.3281 298.191L69.3387 298.198L80.7649 304.715C82.2678 305.572 83.9248 306.125 85.6413 306.341C87.3578 306.558 89.1002 306.435 90.769 305.978C92.4378 305.522 94.0003 304.741 95.3674 303.681C96.7344 302.62 97.8792 301.301 98.7364 299.798Z" fill="#BAD5DB"/>
</svg>
