<svg width="420" height="271" viewBox="0 0 420 271" fill="none" xmlns="http://www.w3.org/2000/svg">
<path d="M419.389 105.176V89.3483C419.389 86.3302 418.19 83.4357 416.055 81.3016C413.921 79.1675 411.027 77.9685 408.009 77.9685H367.842C364.824 77.9685 361.929 76.7696 359.795 74.6355C357.661 72.5014 356.462 69.6069 356.462 66.5888V50.7615C356.462 47.7434 357.661 44.8489 359.795 42.7148C361.929 40.5807 364.824 39.3817 367.842 39.3817H369.11C370.605 39.3817 372.084 39.0874 373.465 38.5155C374.846 37.9436 376.1 37.1054 377.157 36.0487C378.214 34.992 379.052 33.7375 379.624 32.3568C380.196 30.9761 380.49 29.4964 380.49 28.0019V12.1747C380.49 10.6803 380.196 9.20051 379.624 7.81985C379.052 6.43919 378.214 5.18469 377.157 4.12798C376.1 3.07127 374.846 2.23304 373.465 1.66116C372.084 1.08927 370.605 0.794921 369.11 0.794922H77.2764C74.2583 0.794922 71.3638 1.99386 69.2296 4.12798C67.0955 6.26211 65.8966 9.1566 65.8966 12.1747V28.0019C65.8966 29.4964 66.1909 30.9761 66.7628 32.3568C67.3347 33.7375 68.1729 34.992 69.2296 36.0487C70.2863 37.1054 71.5408 37.9436 72.9215 38.5155C74.3022 39.0874 75.782 39.3817 77.2764 39.3817C78.7708 39.3817 80.2506 39.6761 81.6312 40.248C83.0119 40.8199 84.2664 41.6581 85.3231 42.7148C86.3798 43.7715 87.218 45.026 87.7899 46.4067C88.3618 47.7873 88.6561 49.2671 88.6561 50.7615V66.5888C88.6561 68.0832 88.3618 69.563 87.7899 70.9436C87.218 72.3243 86.3798 73.5788 85.3231 74.6355C84.2664 75.6922 83.0119 76.5304 81.6312 77.1023C80.2506 77.6742 78.7708 77.9685 77.2764 77.9685H33.2697C30.2516 77.9685 27.3571 79.1675 25.223 81.3016C23.0889 83.4357 21.8899 86.3302 21.8899 89.3483V105.176C21.8899 108.194 23.0889 111.088 25.223 113.222C27.3571 115.356 30.2516 116.555 33.2697 116.555H50.5372C52.0317 116.555 53.5114 116.85 54.8921 117.422C56.2728 117.993 57.5273 118.832 58.584 119.888C59.6407 120.945 60.4789 122.2 61.0508 123.58C61.6227 124.961 61.917 126.441 61.917 127.935V143.762C61.917 145.257 61.6227 146.737 61.0508 148.117C60.4789 149.498 59.6407 150.752 58.584 151.809C57.5273 152.866 56.2728 153.704 54.8921 154.276C53.5114 154.848 52.0317 155.142 50.5372 155.142H50.4955C49.0011 155.142 47.5213 155.437 46.1407 156.008C44.76 156.58 43.5055 157.419 42.4488 158.475C41.3921 159.532 40.5538 160.787 39.982 162.167C39.4101 163.548 39.1157 165.028 39.1157 166.522V182.349C39.1157 185.367 40.3147 188.262 42.4488 190.396C44.5829 192.53 47.4774 193.729 50.4955 193.729H52.9938C56.0119 193.729 58.9064 194.928 61.0405 197.062C63.1746 199.196 64.3736 202.091 64.3736 205.109V220.936C64.3736 222.43 64.0792 223.91 63.5073 225.291C62.9355 226.672 62.0972 227.926 61.0405 228.983C59.9838 230.04 58.7293 230.878 57.3486 231.45C55.968 232.022 54.4882 232.316 52.9938 232.316H11.9931C8.97496 232.316 6.08047 233.515 3.94634 235.649C1.81222 237.783 0.613281 240.678 0.613281 243.696V259.523C0.613281 261.017 0.907627 262.497 1.47952 263.878C2.0514 265.258 2.88963 266.513 3.94634 267.57C5.00305 268.626 6.25755 269.465 7.63821 270.036C9.01887 270.608 10.4987 270.903 11.9931 270.903H375.22C376.714 270.903 378.194 270.608 379.575 270.036C380.955 269.465 382.21 268.626 383.266 267.57C384.323 266.513 385.161 265.258 385.733 263.878C386.305 262.497 386.599 261.017 386.599 259.523V243.696C386.599 240.678 385.401 237.783 383.266 235.649C381.132 233.515 378.238 232.316 375.22 232.316H365.353C363.858 232.316 362.379 232.022 360.998 231.45C359.617 230.878 358.363 230.04 357.306 228.983C356.249 227.926 355.411 226.672 354.839 225.291C354.267 223.91 353.973 222.43 353.973 220.936V205.109C353.973 203.614 354.267 202.135 354.839 200.754C355.411 199.373 356.249 198.119 357.306 197.062C358.363 196.005 359.617 195.167 360.998 194.595C362.379 194.023 363.858 193.729 365.353 193.729H388.618C390.112 193.729 391.592 193.435 392.973 192.863C394.353 192.291 395.608 191.453 396.665 190.396C397.721 189.339 398.56 188.085 399.131 186.704C399.703 185.323 399.998 183.844 399.998 182.349V166.522C399.998 165.028 399.703 163.548 399.131 162.167C398.56 160.787 397.721 159.532 396.665 158.475C395.608 157.419 394.353 156.58 392.973 156.008C391.592 155.437 390.112 155.142 388.618 155.142H381.56C378.542 155.142 375.648 153.943 373.514 151.809C371.38 149.675 370.181 146.781 370.181 143.762V127.935C370.181 124.917 371.38 122.023 373.514 119.888C375.648 117.754 378.542 116.555 381.56 116.555H408.009C411.027 116.555 413.921 115.356 416.055 113.222C418.19 111.088 419.389 108.194 419.389 105.176Z" fill="#DBE8EC" fill-opacity="0.1"/>
</svg>
