<svg width="16" height="22" viewBox="0 0 16 22" fill="none" xmlns="http://www.w3.org/2000/svg">
<g id="vuesax/linear/profile">
<g id="profile">
<path id="Vector (Stroke)" fill-rule="evenodd" clip-rule="evenodd" d="M8.00055 1.75C5.95586 1.75 4.31055 3.40311 4.31055 5.44C4.31055 7.42302 5.85962 9.03198 7.81543 9.11885C7.93404 9.1106 8.05934 9.1102 8.17755 9.11877C10.1314 9.03098 11.6815 7.42308 11.6905 5.43847C11.6897 3.40339 10.0358 1.75 8.00055 1.75ZM2.81055 5.44C2.81055 2.57689 5.12523 0.25 8.00055 0.25C10.8648 0.25 13.1905 2.57579 13.1905 5.44L13.1905 5.44313C13.1789 8.24352 10.9715 10.5259 8.18574 10.6196C8.15243 10.6207 8.11908 10.6196 8.08592 10.6163C8.0377 10.6115 7.96564 10.6108 7.89845 10.6169C7.8675 10.6197 7.83641 10.6206 7.80535 10.6196C5.02014 10.526 2.81055 8.24337 2.81055 5.44Z" fill="white"/>
<path id="Vector (Stroke)_2" fill-rule="evenodd" clip-rule="evenodd" d="M8.1732 11.4375C10.1014 11.4375 12.0677 11.9214 13.5873 12.9363C14.9531 13.8454 15.7357 15.1198 15.7357 16.4913C15.7357 17.8626 14.9533 19.1393 13.5879 20.0532L13.5878 20.0533C12.0636 21.0732 10.0948 21.56 8.1657 21.56C6.237 21.56 4.26862 21.0734 2.74452 20.0539C1.37841 19.1448 0.595703 17.8703 0.595703 16.4987C0.595703 15.1274 1.37815 13.8507 2.74349 12.9368L2.74624 12.9349L2.74625 12.9349C4.27468 11.9215 6.24477 11.4375 8.1732 11.4375ZM3.57654 14.1842C2.52289 14.89 2.0957 15.7429 2.0957 16.4987C2.0957 17.2544 2.52271 18.1047 3.57613 18.8056L3.57778 18.8067C4.80356 19.6268 6.46479 20.06 8.1657 20.06C9.86655 20.06 11.5277 19.6269 12.7535 18.8068C13.8081 18.1007 14.2357 17.2474 14.2357 16.4913C14.2357 15.7355 13.8087 14.8853 12.7553 14.1844L12.7542 14.1837C11.5337 13.3686 9.875 12.9375 8.1732 12.9375C6.47228 12.9375 4.80797 13.3682 3.57654 14.1842Z" fill="white"/>
</g>
</g>
</svg>
